<svg xmlns="http://www.w3.org/2000/svg" viewBox="0 0 512 512">
  <defs>
    <linearGradient id="bg" x1="0" y1="0" x2="1" y2="1">
      <stop offset="0%" stop-color="#0b1010"/>
      <stop offset="100%" stop-color="#04221a"/>
    </linearGradient>
    <linearGradient id="g" x1="0" y1="0" x2="1" y2="1">
      <stop offset="0%" stop-color="#10b981"/>
      <stop offset="100%" stop-color="#34d399"/>
    </linearGradient>
  </defs>
  <rect width="512" height="512" rx="112" fill="url(#bg)"/>
  <path d="M128 144 Q128 128 144 128 L368 128 Q384 128 384 144 L384 192 Q384 208 368 208 L208 208 L208 240 L320 240 Q336 240 336 256 L336 304 Q336 320 320 320 L208 320 L208 384 Q208 400 192 400 L144 400 Q128 400 128 384 Z"
        fill="url(#g)"/>
  <circle cx="384" cy="384" r="48" fill="url(#g)" opacity="0.85"/>
  <text x="384" y="402" text-anchor="middle" font-family="system-ui, -apple-system, sans-serif"
        font-size="56" font-weight="700" fill="#04221a">$</text>
</svg>
